<?xml version="1.0" encoding="utf-8"?>
<!-- Generator: Adobe Illustrator 24.2.1, SVG Export Plug-In . SVG Version: 6.00 Build 0)  -->
<svg version="1.1" id="Layer_1" xmlns="http://www.w3.org/2000/svg" xmlns:xlink="http://www.w3.org/1999/xlink" x="0px" y="0px"
	 viewBox="0 0 356.33 198.11" style="enable-background:new 0 0 356.33 198.11;" xml:space="preserve">
<style type="text/css">
	.st0{fill:#1A2935;}
	.st1{opacity:0.8;}
	.st2{opacity:0.51;}
	.st3{font-family:'Impact';}
	.st4{font-size:129.0665px;}
	.st5{fill:#FFFFFF;}
	.st6{font-family:'TimesNewRomanPSMT';}
	.st7{font-size:12.9064px;}
	.st8{fill:none;stroke:#000000;stroke-width:10;stroke-miterlimit:10;}
</style>
<path class="st0" d="M191.13,178.13"/>
<path class="st0" d="M159.91,179.14"/>
<path class="st0" d="M157,158.52"/>
<g>
	<path class="st1" d="M206.86,61.23c1.58,1.27,2.1,2.98,2.34,3.75c1.19,3.82-0.58,7.61-1.88,10.39c-0.29,0.62-0.73,1.45-1.67,3.08
		c-1.91,3.34-3.39,5.74-3.74,6.3c-1.17,1.86-5.31,8.7-8.33,15.32c-4.04,8.89-5.29,16.6-6.11,21.61c-0.69,4.19-1.28,7.97-1.05,13.12
		c0.12,2.64,0.33,7.19,2.06,12.26c1,2.92,4.11,11.55,13.08,17.56c8.4,5.63,16.98,5.62,20.04,5.47c-3.95-2.61-11.08-8.13-15.82-17.69
		c-3.44-6.93-4.1-12.92-4.66-17.93c-0.42-3.75-1.3-14.57,2.6-27.17c1.14-3.69,2.35-6.41,4.31-10.82c3.87-8.74,5.81-13.11,8.56-17.63
		c0.74-1.21,2.17-3.49,3.18-6.85c0.94-3.11,1.06-5.61,1.08-6.4c0,0,0,0,0,0c0-2.87,0-6.93-1.25-10.51
		c-0.11-0.32-2.14-5.74-6.86-8.64c-1.68-1.03-3.52-1.63-3.77-1.71c-1.23-0.39-2.42-0.78-4.05-0.75c-1.84,0.02-3.21,0.55-3.91,0.82
		c-0.35,0.14-1.6,0.65-3.02,1.71c-0.62,0.47-1.45,1.07-3.22,3.36c-1.43,1.86-2.53,3.29-3.16,4.12c-2.36,1.16-4.28,2.02-5.62,2.61
		c-1.1,0.48-2.18,0.99-3.29,1.44c-2.77,1.11-3.5,1.16-3.64,1.71c-0.28,1.12,2.12,3.01,4.6,3.77c0.54,0.17,2.46,0.71,6.79-0.21
		c1.97-0.41,4.81-1.21,8.06-2.85C198.93,60.33,203.59,58.6,206.86,61.23z"/>
	<g>
		<path class="st2" d="M203.35,131.76c4.16-17.18,14.81-28.25,18.85-32.35c4.99-5.06,16-15.81,34.2-20.34
			c11.03-2.75,24.87-3.24,26.07-3.28c3.72-0.12,5.51-0.03,15.01-0.22c9.94-0.2,14.91-0.3,17.78-0.58c5.94-0.57,14.3-2.22,23.82-7.22
			c-3.34,11.49-10.24,29.05-25.14,46.15c-7.22,8.29-23.16,26.11-49.81,34.72c-18.02,5.82-27.24,8.33-38.88,7.8
			c0,0-23.58-1.07-25.48,5.11c0,0,0,0.01-0.01,0.01C199.66,161.55,199.94,145.85,203.35,131.76z"/>
		<path class="st2" d="M213.12,138.84c9.74-14.41,22.87-21.76,27.82-24.45c12.71-6.93,26.71-10.27,36.72-9.95
			c6.27,0.2,17.62,2.08,21.09,2.82c1.27,0.27,2.51,0.56,2.51,0.56c3.02,0.72,5.41,1.51,17.1,4.51c11.48,2.94,14.26,3.48,18.19,3.65
			c6.65,0.28,12.41-0.71,16.29-1.61c-7,9.5-19.22,23.58-38.18,35.31c-9.19,5.68-29.29,17.81-55.31,19.07
			c-15.38,0.74-24.69,1.19-36.25-2.44c-7.24-2.27-19.36-7.4-22.9-3.21C199.6,163.83,196.66,163.2,213.12,138.84z"/>
		<path class="st2" d="M216.23,145.61c11.23-9.98,23.64-13.73,28.3-15.08c11.98-3.48,24.2-3.87,32.33-1.97
			c5.1,1.19,13.97,4.57,16.65,5.73c0.98,0.42,1.93,0.86,1.93,0.86c2.31,1.08,4.09,2.1,13,6.43c8.74,4.24,10.9,5.14,14.09,5.92
			c5.38,1.31,10.33,1.47,13.71,1.38c-7.88,6.49-21.07,15.8-39.24,22.11c-8.81,3.06-28.01,9.51-49.62,6.25
			c-12.77-1.93-20.5-3.09-29.16-7.91c-5.42-3.02-14.2-9.12-18.04-6.33C199.52,163.47,197.26,162.48,216.23,145.61z"/>
		<path d="M305.16,111.38"/>
		<path class="st2" d="M201.37,153.64c3.77-28.35,25.44-47.85,25.44-47.85c13.66-12.29,28.74-16.35,35.01-17.34
			c6.61-1.04,19.09-1.38,22.96-1.32c1.41,0.02,2.81,0.07,2.81,0.07c3.39,0.14,6.15,0.46,19.35,1.17c12.95,0.7,16.05,0.7,20.2,0.09
			c7.03-1.03,12.72-3.17,16.47-4.85c-4.44,11.27-12.72,27.73-28.1,43.28c-18.56,18.77-37.44,26.07-50.62,31.17
			c0,0-22.56,8.73-39.41,3.77c0,0,0,0,0,0c-0.03-0.01-16.92-5.32-23.8-0.19c-0.15,0.12-1.62,1.26-1.89,0.98
			c-0.14-0.14,0.1-0.6,0.16-0.73C200.81,160.14,201.24,154.58,201.37,153.64z"/>
		<path class="st2" d="M194.68,136.79c-0.99-15.53,5.96-27.22,8.63-31.56c3.29-5.37,10.68-16.86,26.7-24.56
			c9.71-4.67,22.74-8.01,23.87-8.29c3.51-0.89,5.23-1.18,14.22-3.35c9.4-2.27,14.11-3.4,16.76-4.24c5.49-1.74,12.97-4.91,20.6-11.18
			c0.13,10.51-1.38,26.93-10.64,44.66c-4.49,8.59-14.52,27.15-37.41,40.12c-15.48,8.77-23.53,12.85-34.77,14.85
			c0,0-22.75,4.06-22.78,9.73c0,0,0,0.01,0,0.01C199.75,162.98,195.49,149.52,194.68,136.79z"/>
	</g>
	<path d="M195.08,30.51c0.72,0.03,1.26,0.85,1.21,1.82c-0.01,0.3-0.09,0.58-0.2,0.82c1.68,1.91,4.22,4.35,5.92,3.84
		c1.84-0.55,3.34-8.2,4.13-13.15c-0.56-0.21-0.95-0.93-0.91-1.76c0.05-0.97,0.67-1.73,1.38-1.7c0.72,0.03,1.26,0.85,1.21,1.82
		c-0.04,0.86-0.53,1.55-1.14,1.68c0.06,5.33,0.59,13.81,3.43,13.72c2.84-0.09,5.59-2.25,7.04-3.59c-0.17-0.31-0.26-0.7-0.24-1.12
		c0.05-0.96,0.66-1.72,1.37-1.68c0.71,0.03,1.25,0.84,1.2,1.81s-0.66,1.72-1.37,1.68c-0.26-0.01-0.5-0.13-0.7-0.33l-5.57,10.05
		c-1.83-1.06-3.84-1.69-5.95-1.79c-2.11-0.1-4.16,0.39-6.07,1.36l-4.28-10.16c-0.19,0.13-0.41,0.21-0.64,0.2
		c-0.72-0.03-1.26-0.85-1.21-1.82C193.74,31.23,194.36,30.47,195.08,30.51z"/>
</g>
<text transform="matrix(0.9082 0 0 1 3.7388 146.0133)" class="st3 st4">WZ</text>
<text transform="matrix(0.9628 0 0 1 58.2411 161.6117)" class="st5 st6 st7">Created by Grace</text>
<line class="st8" x1="0" y1="10.68" x2="352.84" y2="10.68"/>
<line class="st8" x1="0" y1="187.83" x2="352.84" y2="187.83"/>
</svg>
