<?xml version="1.0" encoding="utf-8"?>
<!-- Generator: Adobe Illustrator 24.2.1, SVG Export Plug-In . SVG Version: 6.00 Build 0)  -->
<svg version="1.1" id="Layer_1" xmlns="http://www.w3.org/2000/svg" xmlns:xlink="http://www.w3.org/1999/xlink" x="0px" y="0px"
	 viewBox="0 0 62 56.43" style="enable-background:new 0 0 62 56.43;" xml:space="preserve">
<style type="text/css">
	.st0{fill:#1A2935;}
	.st1{opacity:0.8;}
	.st2{opacity:0.51;}
	.st3{fill:#982A1F;}
	.st4{font-family:'Impact';}
	.st5{font-size:11.985px;}
</style>
<g>
	<path class="st0" d="M47.67,56.2"/>
	<path class="st0" d="M36.89,56.55"/>
	<path class="st1" d="M10.49,14.96c0.55,0.44,0.73,1.03,0.81,1.3c0.41,1.32-0.2,2.63-0.65,3.59c-0.1,0.21-0.25,0.5-0.58,1.06
		c-0.66,1.15-1.17,1.98-1.29,2.18c-0.4,0.64-1.83,3-2.87,5.29c-1.4,3.07-1.83,5.73-2.11,7.46c-0.24,1.45-0.44,2.75-0.36,4.53
		c0.04,0.91,0.11,2.48,0.71,4.23c0.34,1.01,1.42,3.99,4.51,6.06c2.9,1.94,5.86,1.94,6.92,1.89c-1.36-0.9-3.82-2.81-5.46-6.11
		c-1.19-2.39-1.41-4.46-1.61-6.19c-0.14-1.29-0.45-5.03,0.9-9.38c0.4-1.27,0.81-2.21,1.49-3.73c1.34-3.02,2.01-4.53,2.96-6.09
		c0.26-0.42,0.75-1.2,1.1-2.37c0.32-1.08,0.37-1.94,0.37-2.21v0c0-0.99,0-2.39-0.43-3.63c-0.04-0.11-0.74-1.98-2.37-2.98
		c-0.58-0.36-1.21-0.56-1.3-0.59C10.8,9.13,10.39,9,9.83,9.01C9.2,9.02,8.72,9.2,8.48,9.29C8.36,9.34,7.93,9.51,7.44,9.88
		c-0.22,0.16-0.5,0.37-1.11,1.16c-0.5,0.64-0.87,1.14-1.09,1.42c-0.81,0.4-1.48,0.7-1.94,0.9c-0.38,0.16-0.75,0.34-1.14,0.5
		c-0.96,0.38-1.21,0.4-1.26,0.59c-0.1,0.39,0.73,1.04,1.59,1.3c0.19,0.06,0.85,0.24,2.34-0.07c0.68-0.14,1.66-0.42,2.78-0.99
		C7.75,14.65,9.36,14.05,10.49,14.96z"/>
	<path class="st0" d="M1.91,48.55"/>
	<g>
		<path class="st2" d="M9.28,39.31c1.44-5.93,5.11-9.75,6.51-11.17c1.72-1.75,5.52-5.46,11.81-7.02c3.81-0.95,8.59-1.12,9-1.13
			c1.28-0.04,1.9-0.01,5.18-0.08c3.43-0.07,5.15-0.1,6.14-0.2c2.05-0.2,4.94-0.77,8.23-2.49c-1.15,3.97-3.53,10.03-8.68,15.93
			c-2.49,2.86-8,9.02-17.2,11.99c-6.22,2.01-9.41,2.88-13.43,2.69c0,0-8.14-0.37-8.8,1.77c0,0,0,0,0,0
			C8.01,49.6,8.1,44.17,9.28,39.31z"/>
		<path class="st2" d="M12.65,41.76c3.36-4.98,7.9-7.51,9.6-8.44c4.39-2.39,9.22-3.54,12.68-3.44c2.17,0.07,6.08,0.72,7.28,0.97
			c0.44,0.09,0.87,0.19,0.87,0.19c1.04,0.25,1.87,0.52,5.9,1.56c3.96,1.01,4.93,1.2,6.28,1.26c2.3,0.1,4.29-0.24,5.62-0.55
			c-2.42,3.28-6.64,8.14-13.18,12.19c-3.17,1.96-10.11,6.15-19.1,6.58c-5.31,0.26-8.53,0.41-12.52-0.84
			c-2.5-0.79-6.69-2.56-7.91-1.11C7.98,50.38,6.97,50.17,12.65,41.76z"/>
		<path class="st2" d="M13.73,44.09c3.88-3.45,8.16-4.74,9.77-5.21c4.14-1.2,8.36-1.34,11.16-0.68c1.76,0.41,4.82,1.58,5.75,1.98
			c0.34,0.15,0.67,0.3,0.67,0.3c0.8,0.37,1.41,0.73,4.49,2.22c3.02,1.47,3.77,1.77,4.86,2.04c1.86,0.45,3.57,0.51,4.73,0.48
			c-2.72,2.24-7.27,5.45-13.55,7.63c-3.04,1.06-9.67,3.28-17.13,2.16c-4.41-0.67-7.08-1.07-10.07-2.73
			c-1.87-1.04-4.9-3.15-6.23-2.19C7.96,50.26,7.18,49.92,13.73,44.09z"/>
		<path d="M44.43,32.27"/>
		<path class="st2" d="M8.59,46.86c1.3-9.79,8.78-16.52,8.78-16.52c4.72-4.24,9.92-5.64,12.09-5.99c2.28-0.36,6.59-0.48,7.93-0.45
			c0.49,0.01,0.97,0.02,0.97,0.02c1.17,0.05,2.12,0.16,6.68,0.41c4.47,0.24,5.54,0.24,6.98,0.03c2.43-0.36,4.39-1.1,5.69-1.67
			c-1.53,3.89-4.39,9.57-9.7,14.94c-6.41,6.48-12.93,9-17.48,10.76c0,0-7.79,3.01-13.61,1.3l0,0c-0.01,0-5.84-1.84-8.22-0.06
			c-0.05,0.04-0.56,0.43-0.65,0.34C8,49.93,8.08,49.77,8.1,49.72C8.4,49.11,8.55,47.19,8.59,46.86z"/>
		<path class="st2" d="M6.29,41.05c-0.34-5.36,2.06-9.4,2.98-10.9c1.14-1.85,3.69-5.82,9.22-8.48c3.35-1.61,7.85-2.77,8.24-2.86
			c1.21-0.31,1.81-0.41,4.91-1.16c3.25-0.78,4.87-1.18,5.79-1.47c1.89-0.6,4.48-1.7,7.11-3.86c0.04,3.63-0.48,9.3-3.67,15.42
			c-1.55,2.97-5.01,9.38-12.92,13.85c-5.34,3.03-8.12,4.44-12,5.13c0,0-7.86,1.4-7.87,3.36c0,0,0,0,0,0
			C8.04,50.09,6.57,45.44,6.29,41.05z"/>
	</g>
	<path d="M6.42,4.35c0.25,0.01,0.44,0.29,0.42,0.63c-0.01,0.1-0.03,0.2-0.07,0.28c0.58,0.66,1.46,1.5,2.04,1.33
		c0.63-0.19,1.15-2.83,1.43-4.54c-0.19-0.07-0.33-0.32-0.31-0.61c0.02-0.34,0.23-0.6,0.48-0.59c0.25,0.01,0.44,0.29,0.42,0.63
		c-0.01,0.3-0.18,0.53-0.39,0.58c0.02,1.84,0.2,4.77,1.19,4.74c0.98-0.03,1.93-0.78,2.43-1.24c-0.06-0.11-0.09-0.24-0.08-0.39
		c0.02-0.33,0.23-0.59,0.47-0.58c0.25,0.01,0.43,0.29,0.42,0.62c-0.02,0.33-0.23,0.59-0.47,0.58c-0.09,0-0.17-0.05-0.24-0.11
		l-1.92,3.47c-0.63-0.37-1.33-0.58-2.05-0.62C9.43,8.5,8.72,8.67,8.06,9.01L6.58,5.5C6.52,5.54,6.44,5.57,6.36,5.57
		C6.12,5.56,5.93,5.27,5.94,4.94C5.96,4.6,6.17,4.34,6.42,4.35z"/>
</g>
<text transform="matrix(1.6002 0 0 1 19.8138 13.0746)" class="st3 st4 st5">WZ</text>
</svg>
